<svg width="24" height="19" viewBox="0 0 24 19" fill="none" xmlns="http://www.w3.org/2000/svg">
<path d="M2.26936 0.0791906C2.11516 0.102839 1.96691 0.667378 1.66889 0.961472C1.45095 1.17372 1.17889 1.16044 1.03438 1.42285C0.979517 1.52088 0.997289 1.68822 0.935035 1.84889C0.813452 2.17023 0.385015 2.19895 0.385015 2.54907C0.383525 2.92718 0.742314 2.99939 1.05289 3.26767C1.29531 3.48362 1.31905 3.63249 1.61255 3.73714C1.86316 3.82194 2.23599 3.54478 2.5718 3.64429C2.84758 3.72613 3.11144 3.78507 3.17375 4.06663C3.22855 4.32607 3.17002 4.72846 2.83571 4.68206C2.72301 4.66952 2.2345 4.50589 1.63409 4.56927C0.909813 4.65111 0.0832658 4.88616 0.00249471 5.68888C-0.0419879 6.13771 0.516174 6.66691 1.05513 6.55931C1.42796 6.4863 1.25157 6.04931 1.45467 5.83701C1.72077 5.56508 3.22855 6.78632 4.63034 6.78632C5.22043 6.78632 5.65924 6.63819 6.09518 6.18416C6.13588 6.14951 6.18558 6.07508 6.24858 6.07063C6.30791 6.07508 6.41167 6.13327 6.44577 6.15835C7.57476 7.06047 8.42797 8.86995 12.577 8.89132C13.1604 8.89423 13.8253 9.1714 14.3679 9.66372C14.852 10.1089 15.1352 10.8009 15.4101 11.5034C15.8253 12.5574 16.5696 13.5826 17.6977 14.7235C17.7593 14.7847 18.6881 15.5026 18.7622 15.5564C18.7741 15.5637 18.8423 15.7259 18.8186 15.8165C18.7912 16.5005 18.6911 18.4898 20.1826 18.5797C20.5473 18.5981 20.4516 18.3431 20.4516 18.1677C20.4509 17.8213 20.3871 17.4771 20.571 17.1226C20.8223 16.6347 20.038 16.4098 20.061 15.3551C20.0773 14.5687 19.4131 14.7028 19.0758 14.1036C18.8816 13.7565 18.7089 13.5723 18.7215 13.1477C18.7971 10.7583 18.21 9.18832 17.9172 8.80287C17.6889 8.51173 17.4999 8.39603 17.7089 8.26113C18.9535 7.44376 19.236 6.6831 19.236 6.6831C19.8979 5.13608 20.4932 3.72312 21.3138 3.10113C21.4791 2.97283 21.9031 2.65816 22.1633 2.53431C22.929 2.17536 23.3323 1.95797 23.5547 1.74271C23.9068 1.40148 24.1848 0.690233 23.8475 0.259064C23.4279 -0.273098 22.7022 0.149236 22.382 0.337892C20.0936 1.68822 19.7563 4.07028 18.9639 5.43827C18.3316 6.53127 17.3034 7.33393 16.3842 7.39953C15.6948 7.45037 14.9521 7.31182 14.2122 6.989C12.4131 6.2048 11.4287 5.19211 11.1967 5.01303C10.7133 4.64227 6.96094 0.979883 3.92091 0.83027C3.92091 0.83027 3.54365 0.0792435 3.44873 0.0667053C3.22632 0.0386661 2.99879 0.515544 2.83571 0.570881C2.68225 0.621669 2.4243 0.0541141 2.26936 0.0791906Z" fill="#B7B7B7"/>
</svg>
